<?xml version="1.0" encoding="UTF-8" standalone="no"?>
<!-- Created with Inkscape (http://www.inkscape.org/) -->

<svg
   xmlns:osb="http://www.openswatchbook.org/uri/2009/osb"
   xmlns:dc="http://purl.org/dc/elements/1.1/"
   xmlns:cc="http://creativecommons.org/ns#"
   xmlns:rdf="http://www.w3.org/1999/02/22-rdf-syntax-ns#"
   xmlns:svg="http://www.w3.org/2000/svg"
   xmlns="http://www.w3.org/2000/svg"
   xmlns:sodipodi="http://sodipodi.sourceforge.net/DTD/sodipodi-0.dtd"
   xmlns:inkscape="http://www.inkscape.org/namespaces/inkscape"
   width="256px"
   height="256px"
   viewBox="0 0 256 256"
   version="1.1"
   id="SVGRoot"
   inkscape:version="0.92.2 (5c3e80d, 2017-08-06)"
   sodipodi:docname="icon.svg"
   inkscape:export-filename="/home/thibaud/Documents/icon.png"
   inkscape:export-xdpi="96"
   inkscape:export-ydpi="96">
  <sodipodi:namedview
     id="base"
     pagecolor="#ffffff"
     bordercolor="#666666"
     borderopacity="1.0"
     inkscape:pageopacity="0.0"
     inkscape:pageshadow="2"
     inkscape:zoom="2"
     inkscape:cx="106.5805"
     inkscape:cy="121.33941"
     inkscape:document-units="px"
     inkscape:current-layer="layer2"
     showgrid="false"
     inkscape:window-width="1920"
     inkscape:window-height="1012"
     inkscape:window-x="0"
     inkscape:window-y="34"
     inkscape:window-maximized="1"
     inkscape:grid-bbox="true"
     inkscape:snap-others="false"
     inkscape:snap-to-guides="true"
     inkscape:snap-grids="true"
     inkscape:object-nodes="false"
     inkscape:snap-nodes="false"
     inkscape:snap-page="false"
     inkscape:snap-global="false" />
  <defs
     id="defs815">
    <linearGradient
       id="linearGradient879"
       osb:paint="solid">
      <stop
         style="stop-color:#0000ff;stop-opacity:1;"
         offset="0"
         id="stop877" />
    </linearGradient>
  </defs>
  <metadata
     id="metadata818">
    <rdf:RDF>
      <cc:Work
         rdf:about="">
        <dc:format>image/svg+xml</dc:format>
        <dc:type
           rdf:resource="http://purl.org/dc/dcmitype/StillImage" />
        <dc:title />
      </cc:Work>
    </rdf:RDF>
  </metadata>
  <g
     id="layer1"
     inkscape:groupmode="layer"
     inkscape:label="Hexagon"
     style="display:inline">
    <path
       sodipodi:type="star"
       style="fill:none;fill-opacity:1;stroke:#000000;stroke-width:13.31283188;stroke-linecap:butt;stroke-linejoin:round;stroke-miterlimit:2.0999999;stroke-dasharray:none;stroke-dashoffset:0;stroke-opacity:1;paint-order:normal"
       id="path1404"
       sodipodi:sides="6"
       sodipodi:cx="129"
       sodipodi:cy="127"
       sodipodi:r1="121.62442"
       sodipodi:r2="105.32984"
       sodipodi:arg1="1.5707963"
       sodipodi:arg2="2.0943951"
       inkscape:flatsided="true"
       inkscape:rounded="0"
       inkscape:randomized="0"
       d="M 129,248.62442 23.670164,187.81221 23.670161,66.187793 129,5.3755798 234.32984,66.187787 l 0,121.624423 z"
       transform="matrix(1.0082038,0,0,0.98981319,-2.0583222,2.3197632)" />
  </g>
  <g
     inkscape:groupmode="layer"
     id="layer2"
     inkscape:label="Fill"
     style="display:inline">
    <path
       style="display:inline;fill:#77b5fe;fill-opacity:1;stroke:none;stroke-width:0;stroke-linecap:butt;stroke-linejoin:round;stroke-miterlimit:2.0999999;stroke-dasharray:none;stroke-dashoffset:0;stroke-opacity:1;paint-order:normal"
       d="m 32.817676,186.65535 -4.112825,-2.34476 -0.0098,-56.25 -0.0098,-56.25 49.661336,-28.132585 49.661333,-28.132585 38.71132,21.937122 38.71131,21.937124 0.128,39.834699 0.12799,39.834695 -10.71868,11.76702 c -5.89528,6.47186 -10.85403,11.75971 -11.01945,11.75078 -0.16542,-0.009 -5.13086,-5.30723 -11.03431,-11.774 L 162.1805,139.07509 V 124.86031 110.64554 L 145.11959,95.85988 128.05867,81.074215 126.49459,82.38648 c -0.86025,0.721745 -7.04702,6.06243 -13.74838,11.868185 -6.70136,5.805755 -12.34677,10.555925 -12.54536,10.555925 -0.19858,0 -6.507744,-5.7375 -14.020349,-12.75 -7.512605,-7.0125 -13.844105,-12.75 -14.069998,-12.75 -0.225892,0 -8.052803,6.975 -17.393134,15.5 l -16.98242,15.5 -0.02723,39.375 c -0.01497,21.65625 -0.195974,39.36139 -0.402224,39.34476 -0.20625,-0.0166 -2.225771,-1.08539 -4.487825,-2.375 z"
       id="path875"
       inkscape:connector-curvature="0" />
    <path
       style="display:inline;fill:#ffffff;fill-opacity:1;stroke:none;stroke-width:0;stroke-linecap:butt;stroke-linejoin:round;stroke-miterlimit:2.0999999;stroke-dasharray:none;stroke-dashoffset:0;stroke-opacity:1;paint-order:normal"
       d="m 89.319542,218.63596 -38.600975,-21.82537 -0.01294,-40.5 -0.01294,-40.5 10.297395,-9.43947 c 5.663568,-5.19171 10.583417,-9.46671 10.933,-9.500001 0.349582,-0.03329 5.377996,4.326971 11.174255,9.689471 l 10.538651,9.75 0.02226,28.125 0.02226,28.125 h 6.25 6.250002 v -27.89696 -27.89695 l 10.33742,-8.97804 c 5.68557,-4.93793 10.63356,-9.156852 10.99551,-9.375387 0.44889,-0.271017 4.07714,2.569187 11.41259,8.933797 l 10.75448,9.33114 0.0158,13.8162 0.0157,13.8162 16.85923,18.58845 c 9.27257,10.22364 17.08422,18.58844 17.35922,18.58844 0.275,0 8.08665,-8.3648 17.35923,-18.58844 l 16.85922,-18.58845 0.0158,-38.84462 0.0158,-38.844615 4.5,2.574767 4.5,2.574767 -0.001,56.269851 -0.001,56.26985 -48.05687,27.25 c -26.43128,14.9875 -48.7642,27.62142 -49.62871,28.07537 l -1.57183,0.82538 -38.600981,-21.82538 z"
       id="path883"
       inkscape:connector-curvature="0" />
  </g>
  <g
     inkscape:groupmode="layer"
     id="layer5"
     inkscape:label="Mu new">
    <path
       style="display:inline;fill:none;stroke:#000000;stroke-width:12.20786858;stroke-linecap:butt;stroke-linejoin:miter;stroke-miterlimit:4;stroke-dasharray:none;stroke-opacity:1"
       d="M 44.103934,200 V 113.23092 L 72.069289,87.596007 100.03464,113.69701 v 58.72724 -58.72724 L 128,89.460364 155.96535,113.69701 v 27.96535 l 27.96536,30.76189 27.96535,-30.76189 V 55.359366"
       id="path2967"
       inkscape:connector-curvature="0"
       sodipodi:nodetypes="cccccccccccc"
       inkscape:export-xdpi="96"
       inkscape:export-ydpi="96" />
  </g>
</svg>
